<?xml version="1.0" encoding="utf-8" standalone="no"?>
<!DOCTYPE svg PUBLIC "-//W3C//DTD SVG 1.1//EN"
  "http://www.w3.org/Graphics/SVG/1.1/DTD/svg11.dtd">
<svg xmlns:xlink="http://www.w3.org/1999/xlink" width="460.8pt" height="345.6pt" viewBox="0 0 460.8 345.6" xmlns="http://www.w3.org/2000/svg" version="1.1">
 <metadata>
  <rdf:RDF xmlns:dc="http://purl.org/dc/elements/1.1/" xmlns:cc="http://creativecommons.org/ns#" xmlns:rdf="http://www.w3.org/1999/02/22-rdf-syntax-ns#">
   <cc:Work>
    <dc:type rdf:resource="http://purl.org/dc/dcmitype/StillImage"/>
    <dc:date>2023-04-20T19:29:23.474459</dc:date>
    <dc:format>image/svg+xml</dc:format>
    <dc:creator>
     <cc:Agent>
      <dc:title>Matplotlib v3.6.2, https://matplotlib.org/</dc:title>
     </cc:Agent>
    </dc:creator>
   </cc:Work>
  </rdf:RDF>
 </metadata>
 <defs>
  <style type="text/css">*{stroke-linejoin: round; stroke-linecap: butt}</style>
 </defs>
 <g id="figure_1">
  <g id="patch_1">
   <path d="M 0 345.6 
L 460.8 345.6 
L 460.8 0 
L 0 0 
z
" style="fill: #ffffff"/>
  </g>
  <g id="axes_1">
   <g id="patch_2">
    <path d="M 57.6 307.584 
L 414.72 307.584 
L 414.72 41.472 
L 57.6 41.472 
z
" style="fill: #ffffff"/>
   </g>
   <g id="matplotlib.axis_1">
    <g id="xtick_1">
     <g id="line2d_1">
      <defs>
       <path id="m1657fea0ab" d="M 0 0 
L 0 3.5 
" style="stroke: #000000; stroke-width: 0.8"/>
      </defs>
      <g>
       <use xlink:href="#m1657fea0ab" x="57.6" y="307.584" style="stroke: #000000; stroke-width: 0.8"/>
      </g>
     </g>
     <g id="text_1">
      <!-- 0 -->
      <g transform="translate(54.41875 322.182437) scale(0.1 -0.1)">
       <defs>
        <path id="DejaVuSans-30" d="M 2034 4250 
Q 1547 4250 1301 3770 
Q 1056 3291 1056 2328 
Q 1056 1369 1301 889 
Q 1547 409 2034 409 
Q 2525 409 2770 889 
Q 3016 1369 3016 2328 
Q 3016 3291 2770 3770 
Q 2525 4250 2034 4250 
z
M 2034 4750 
Q 2819 4750 3233 4129 
Q 3647 3509 3647 2328 
Q 3647 1150 3233 529 
Q 2819 -91 2034 -91 
Q 1250 -91 836 529 
Q 422 1150 422 2328 
Q 422 3509 836 4129 
Q 1250 4750 2034 4750 
z
" transform="scale(0.015625)"/>
       </defs>
       <use xlink:href="#DejaVuSans-30"/>
      </g>
     </g>
    </g>
    <g id="xtick_2">
     <g id="line2d_2">
      <g>
       <use xlink:href="#m1657fea0ab" x="129.024" y="307.584" style="stroke: #000000; stroke-width: 0.8"/>
      </g>
     </g>
     <g id="text_2">
      <!-- 1 -->
      <g transform="translate(125.84275 322.182437) scale(0.1 -0.1)">
       <defs>
        <path id="DejaVuSans-31" d="M 794 531 
L 1825 531 
L 1825 4091 
L 703 3866 
L 703 4441 
L 1819 4666 
L 2450 4666 
L 2450 531 
L 3481 531 
L 3481 0 
L 794 0 
L 794 531 
z
" transform="scale(0.015625)"/>
       </defs>
       <use xlink:href="#DejaVuSans-31"/>
      </g>
     </g>
    </g>
    <g id="xtick_3">
     <g id="line2d_3">
      <g>
       <use xlink:href="#m1657fea0ab" x="200.448" y="307.584" style="stroke: #000000; stroke-width: 0.8"/>
      </g>
     </g>
     <g id="text_3">
      <!-- 2 -->
      <g transform="translate(197.26675 322.182437) scale(0.1 -0.1)">
       <defs>
        <path id="DejaVuSans-32" d="M 1228 531 
L 3431 531 
L 3431 0 
L 469 0 
L 469 531 
Q 828 903 1448 1529 
Q 2069 2156 2228 2338 
Q 2531 2678 2651 2914 
Q 2772 3150 2772 3378 
Q 2772 3750 2511 3984 
Q 2250 4219 1831 4219 
Q 1534 4219 1204 4116 
Q 875 4013 500 3803 
L 500 4441 
Q 881 4594 1212 4672 
Q 1544 4750 1819 4750 
Q 2544 4750 2975 4387 
Q 3406 4025 3406 3419 
Q 3406 3131 3298 2873 
Q 3191 2616 2906 2266 
Q 2828 2175 2409 1742 
Q 1991 1309 1228 531 
z
" transform="scale(0.015625)"/>
       </defs>
       <use xlink:href="#DejaVuSans-32"/>
      </g>
     </g>
    </g>
    <g id="xtick_4">
     <g id="line2d_4">
      <g>
       <use xlink:href="#m1657fea0ab" x="271.872" y="307.584" style="stroke: #000000; stroke-width: 0.8"/>
      </g>
     </g>
     <g id="text_4">
      <!-- 3 -->
      <g transform="translate(268.69075 322.182437) scale(0.1 -0.1)">
       <defs>
        <path id="DejaVuSans-33" d="M 2597 2516 
Q 3050 2419 3304 2112 
Q 3559 1806 3559 1356 
Q 3559 666 3084 287 
Q 2609 -91 1734 -91 
Q 1441 -91 1130 -33 
Q 819 25 488 141 
L 488 750 
Q 750 597 1062 519 
Q 1375 441 1716 441 
Q 2309 441 2620 675 
Q 2931 909 2931 1356 
Q 2931 1769 2642 2001 
Q 2353 2234 1838 2234 
L 1294 2234 
L 1294 2753 
L 1863 2753 
Q 2328 2753 2575 2939 
Q 2822 3125 2822 3475 
Q 2822 3834 2567 4026 
Q 2313 4219 1838 4219 
Q 1578 4219 1281 4162 
Q 984 4106 628 3988 
L 628 4550 
Q 988 4650 1302 4700 
Q 1616 4750 1894 4750 
Q 2613 4750 3031 4423 
Q 3450 4097 3450 3541 
Q 3450 3153 3228 2886 
Q 3006 2619 2597 2516 
z
" transform="scale(0.015625)"/>
       </defs>
       <use xlink:href="#DejaVuSans-33"/>
      </g>
     </g>
    </g>
    <g id="xtick_5">
     <g id="line2d_5">
      <g>
       <use xlink:href="#m1657fea0ab" x="343.296" y="307.584" style="stroke: #000000; stroke-width: 0.8"/>
      </g>
     </g>
     <g id="text_5">
      <!-- 4 -->
      <g transform="translate(340.11475 322.182437) scale(0.1 -0.1)">
       <defs>
        <path id="DejaVuSans-34" d="M 2419 4116 
L 825 1625 
L 2419 1625 
L 2419 4116 
z
M 2253 4666 
L 3047 4666 
L 3047 1625 
L 3713 1625 
L 3713 1100 
L 3047 1100 
L 3047 0 
L 2419 0 
L 2419 1100 
L 313 1100 
L 313 1709 
L 2253 4666 
z
" transform="scale(0.015625)"/>
       </defs>
       <use xlink:href="#DejaVuSans-34"/>
      </g>
     </g>
    </g>
    <g id="xtick_6">
     <g id="line2d_6">
      <g>
       <use xlink:href="#m1657fea0ab" x="414.72" y="307.584" style="stroke: #000000; stroke-width: 0.8"/>
      </g>
     </g>
     <g id="text_6">
      <!-- 5 -->
      <g transform="translate(411.53875 322.182437) scale(0.1 -0.1)">
       <defs>
        <path id="DejaVuSans-35" d="M 691 4666 
L 3169 4666 
L 3169 4134 
L 1269 4134 
L 1269 2991 
Q 1406 3038 1543 3061 
Q 1681 3084 1819 3084 
Q 2600 3084 3056 2656 
Q 3513 2228 3513 1497 
Q 3513 744 3044 326 
Q 2575 -91 1722 -91 
Q 1428 -91 1123 -41 
Q 819 9 494 109 
L 494 744 
Q 775 591 1075 516 
Q 1375 441 1709 441 
Q 2250 441 2565 725 
Q 2881 1009 2881 1497 
Q 2881 1984 2565 2268 
Q 2250 2553 1709 2553 
Q 1456 2553 1204 2497 
Q 953 2441 691 2322 
L 691 4666 
z
" transform="scale(0.015625)"/>
       </defs>
       <use xlink:href="#DejaVuSans-35"/>
      </g>
     </g>
    </g>
    <g id="text_7">
     <!-- Ausgangsspannung [V] -->
     <g transform="translate(178.177188 335.860562) scale(0.1 -0.1)">
      <defs>
       <path id="DejaVuSans-41" d="M 2188 4044 
L 1331 1722 
L 3047 1722 
L 2188 4044 
z
M 1831 4666 
L 2547 4666 
L 4325 0 
L 3669 0 
L 3244 1197 
L 1141 1197 
L 716 0 
L 50 0 
L 1831 4666 
z
" transform="scale(0.015625)"/>
       <path id="DejaVuSans-75" d="M 544 1381 
L 544 3500 
L 1119 3500 
L 1119 1403 
Q 1119 906 1312 657 
Q 1506 409 1894 409 
Q 2359 409 2629 706 
Q 2900 1003 2900 1516 
L 2900 3500 
L 3475 3500 
L 3475 0 
L 2900 0 
L 2900 538 
Q 2691 219 2414 64 
Q 2138 -91 1772 -91 
Q 1169 -91 856 284 
Q 544 659 544 1381 
z
M 1991 3584 
L 1991 3584 
z
" transform="scale(0.015625)"/>
       <path id="DejaVuSans-73" d="M 2834 3397 
L 2834 2853 
Q 2591 2978 2328 3040 
Q 2066 3103 1784 3103 
Q 1356 3103 1142 2972 
Q 928 2841 928 2578 
Q 928 2378 1081 2264 
Q 1234 2150 1697 2047 
L 1894 2003 
Q 2506 1872 2764 1633 
Q 3022 1394 3022 966 
Q 3022 478 2636 193 
Q 2250 -91 1575 -91 
Q 1294 -91 989 -36 
Q 684 19 347 128 
L 347 722 
Q 666 556 975 473 
Q 1284 391 1588 391 
Q 1994 391 2212 530 
Q 2431 669 2431 922 
Q 2431 1156 2273 1281 
Q 2116 1406 1581 1522 
L 1381 1569 
Q 847 1681 609 1914 
Q 372 2147 372 2553 
Q 372 3047 722 3315 
Q 1072 3584 1716 3584 
Q 2034 3584 2315 3537 
Q 2597 3491 2834 3397 
z
" transform="scale(0.015625)"/>
       <path id="DejaVuSans-67" d="M 2906 1791 
Q 2906 2416 2648 2759 
Q 2391 3103 1925 3103 
Q 1463 3103 1205 2759 
Q 947 2416 947 1791 
Q 947 1169 1205 825 
Q 1463 481 1925 481 
Q 2391 481 2648 825 
Q 2906 1169 2906 1791 
z
M 3481 434 
Q 3481 -459 3084 -895 
Q 2688 -1331 1869 -1331 
Q 1566 -1331 1297 -1286 
Q 1028 -1241 775 -1147 
L 775 -588 
Q 1028 -725 1275 -790 
Q 1522 -856 1778 -856 
Q 2344 -856 2625 -561 
Q 2906 -266 2906 331 
L 2906 616 
Q 2728 306 2450 153 
Q 2172 0 1784 0 
Q 1141 0 747 490 
Q 353 981 353 1791 
Q 353 2603 747 3093 
Q 1141 3584 1784 3584 
Q 2172 3584 2450 3431 
Q 2728 3278 2906 2969 
L 2906 3500 
L 3481 3500 
L 3481 434 
z
" transform="scale(0.015625)"/>
       <path id="DejaVuSans-61" d="M 2194 1759 
Q 1497 1759 1228 1600 
Q 959 1441 959 1056 
Q 959 750 1161 570 
Q 1363 391 1709 391 
Q 2188 391 2477 730 
Q 2766 1069 2766 1631 
L 2766 1759 
L 2194 1759 
z
M 3341 1997 
L 3341 0 
L 2766 0 
L 2766 531 
Q 2569 213 2275 61 
Q 1981 -91 1556 -91 
Q 1019 -91 701 211 
Q 384 513 384 1019 
Q 384 1609 779 1909 
Q 1175 2209 1959 2209 
L 2766 2209 
L 2766 2266 
Q 2766 2663 2505 2880 
Q 2244 3097 1772 3097 
Q 1472 3097 1187 3025 
Q 903 2953 641 2809 
L 641 3341 
Q 956 3463 1253 3523 
Q 1550 3584 1831 3584 
Q 2591 3584 2966 3190 
Q 3341 2797 3341 1997 
z
" transform="scale(0.015625)"/>
       <path id="DejaVuSans-6e" d="M 3513 2113 
L 3513 0 
L 2938 0 
L 2938 2094 
Q 2938 2591 2744 2837 
Q 2550 3084 2163 3084 
Q 1697 3084 1428 2787 
Q 1159 2491 1159 1978 
L 1159 0 
L 581 0 
L 581 3500 
L 1159 3500 
L 1159 2956 
Q 1366 3272 1645 3428 
Q 1925 3584 2291 3584 
Q 2894 3584 3203 3211 
Q 3513 2838 3513 2113 
z
" transform="scale(0.015625)"/>
       <path id="DejaVuSans-70" d="M 1159 525 
L 1159 -1331 
L 581 -1331 
L 581 3500 
L 1159 3500 
L 1159 2969 
Q 1341 3281 1617 3432 
Q 1894 3584 2278 3584 
Q 2916 3584 3314 3078 
Q 3713 2572 3713 1747 
Q 3713 922 3314 415 
Q 2916 -91 2278 -91 
Q 1894 -91 1617 61 
Q 1341 213 1159 525 
z
M 3116 1747 
Q 3116 2381 2855 2742 
Q 2594 3103 2138 3103 
Q 1681 3103 1420 2742 
Q 1159 2381 1159 1747 
Q 1159 1113 1420 752 
Q 1681 391 2138 391 
Q 2594 391 2855 752 
Q 3116 1113 3116 1747 
z
" transform="scale(0.015625)"/>
       <path id="DejaVuSans-20" transform="scale(0.015625)"/>
       <path id="DejaVuSans-5b" d="M 550 4863 
L 1875 4863 
L 1875 4416 
L 1125 4416 
L 1125 -397 
L 1875 -397 
L 1875 -844 
L 550 -844 
L 550 4863 
z
" transform="scale(0.015625)"/>
       <path id="DejaVuSans-56" d="M 1831 0 
L 50 4666 
L 709 4666 
L 2188 738 
L 3669 4666 
L 4325 4666 
L 2547 0 
L 1831 0 
z
" transform="scale(0.015625)"/>
       <path id="DejaVuSans-5d" d="M 1947 4863 
L 1947 -844 
L 622 -844 
L 622 -397 
L 1369 -397 
L 1369 4416 
L 622 4416 
L 622 4863 
L 1947 4863 
z
" transform="scale(0.015625)"/>
      </defs>
      <use xlink:href="#DejaVuSans-41"/>
      <use xlink:href="#DejaVuSans-75" x="68.408203"/>
      <use xlink:href="#DejaVuSans-73" x="131.787109"/>
      <use xlink:href="#DejaVuSans-67" x="183.886719"/>
      <use xlink:href="#DejaVuSans-61" x="247.363281"/>
      <use xlink:href="#DejaVuSans-6e" x="308.642578"/>
      <use xlink:href="#DejaVuSans-67" x="372.021484"/>
      <use xlink:href="#DejaVuSans-73" x="435.498047"/>
      <use xlink:href="#DejaVuSans-73" x="487.597656"/>
      <use xlink:href="#DejaVuSans-70" x="539.697266"/>
      <use xlink:href="#DejaVuSans-61" x="603.173828"/>
      <use xlink:href="#DejaVuSans-6e" x="664.453125"/>
      <use xlink:href="#DejaVuSans-6e" x="727.832031"/>
      <use xlink:href="#DejaVuSans-75" x="791.210938"/>
      <use xlink:href="#DejaVuSans-6e" x="854.589844"/>
      <use xlink:href="#DejaVuSans-67" x="917.96875"/>
      <use xlink:href="#DejaVuSans-20" x="981.445312"/>
      <use xlink:href="#DejaVuSans-5b" x="1013.232422"/>
      <use xlink:href="#DejaVuSans-56" x="1052.246094"/>
      <use xlink:href="#DejaVuSans-5d" x="1120.654297"/>
     </g>
    </g>
   </g>
   <g id="matplotlib.axis_2">
    <g id="ytick_1">
     <g id="line2d_7">
      <defs>
       <path id="m804758afbc" d="M 0 0 
L -3.5 0 
" style="stroke: #000000; stroke-width: 0.8"/>
      </defs>
      <g>
       <use xlink:href="#m804758afbc" x="57.6" y="307.584" style="stroke: #000000; stroke-width: 0.8"/>
      </g>
     </g>
     <g id="text_8">
      <!-- −20 -->
      <g transform="translate(29.495313 311.383219) scale(0.1 -0.1)">
       <defs>
        <path id="DejaVuSans-2212" d="M 678 2272 
L 4684 2272 
L 4684 1741 
L 678 1741 
L 678 2272 
z
" transform="scale(0.015625)"/>
       </defs>
       <use xlink:href="#DejaVuSans-2212"/>
       <use xlink:href="#DejaVuSans-32" x="83.789062"/>
       <use xlink:href="#DejaVuSans-30" x="147.412109"/>
      </g>
     </g>
    </g>
    <g id="ytick_2">
     <g id="line2d_8">
      <g>
       <use xlink:href="#m804758afbc" x="57.6" y="274.32" style="stroke: #000000; stroke-width: 0.8"/>
      </g>
     </g>
     <g id="text_9">
      <!-- −15 -->
      <g transform="translate(29.495313 278.119219) scale(0.1 -0.1)">
       <use xlink:href="#DejaVuSans-2212"/>
       <use xlink:href="#DejaVuSans-31" x="83.789062"/>
       <use xlink:href="#DejaVuSans-35" x="147.412109"/>
      </g>
     </g>
    </g>
    <g id="ytick_3">
     <g id="line2d_9">
      <g>
       <use xlink:href="#m804758afbc" x="57.6" y="241.056" style="stroke: #000000; stroke-width: 0.8"/>
      </g>
     </g>
     <g id="text_10">
      <!-- −10 -->
      <g transform="translate(29.495313 244.855219) scale(0.1 -0.1)">
       <use xlink:href="#DejaVuSans-2212"/>
       <use xlink:href="#DejaVuSans-31" x="83.789062"/>
       <use xlink:href="#DejaVuSans-30" x="147.412109"/>
      </g>
     </g>
    </g>
    <g id="ytick_4">
     <g id="line2d_10">
      <g>
       <use xlink:href="#m804758afbc" x="57.6" y="207.792" style="stroke: #000000; stroke-width: 0.8"/>
      </g>
     </g>
     <g id="text_11">
      <!-- −5 -->
      <g transform="translate(35.857813 211.591219) scale(0.1 -0.1)">
       <use xlink:href="#DejaVuSans-2212"/>
       <use xlink:href="#DejaVuSans-35" x="83.789062"/>
      </g>
     </g>
    </g>
    <g id="ytick_5">
     <g id="line2d_11">
      <g>
       <use xlink:href="#m804758afbc" x="57.6" y="174.528" style="stroke: #000000; stroke-width: 0.8"/>
      </g>
     </g>
     <g id="text_12">
      <!-- 0 -->
      <g transform="translate(44.2375 178.327219) scale(0.1 -0.1)">
       <use xlink:href="#DejaVuSans-30"/>
      </g>
     </g>
    </g>
    <g id="ytick_6">
     <g id="line2d_12">
      <g>
       <use xlink:href="#m804758afbc" x="57.6" y="141.264" style="stroke: #000000; stroke-width: 0.8"/>
      </g>
     </g>
     <g id="text_13">
      <!-- 5 -->
      <g transform="translate(44.2375 145.063219) scale(0.1 -0.1)">
       <use xlink:href="#DejaVuSans-35"/>
      </g>
     </g>
    </g>
    <g id="ytick_7">
     <g id="line2d_13">
      <g>
       <use xlink:href="#m804758afbc" x="57.6" y="108" style="stroke: #000000; stroke-width: 0.8"/>
      </g>
     </g>
     <g id="text_14">
      <!-- 10 -->
      <g transform="translate(37.875 111.799219) scale(0.1 -0.1)">
       <use xlink:href="#DejaVuSans-31"/>
       <use xlink:href="#DejaVuSans-30" x="63.623047"/>
      </g>
     </g>
    </g>
    <g id="ytick_8">
     <g id="line2d_14">
      <g>
       <use xlink:href="#m804758afbc" x="57.6" y="74.736" style="stroke: #000000; stroke-width: 0.8"/>
      </g>
     </g>
     <g id="text_15">
      <!-- 15 -->
      <g transform="translate(37.875 78.535219) scale(0.1 -0.1)">
       <use xlink:href="#DejaVuSans-31"/>
       <use xlink:href="#DejaVuSans-35" x="63.623047"/>
      </g>
     </g>
    </g>
    <g id="ytick_9">
     <g id="line2d_15">
      <g>
       <use xlink:href="#m804758afbc" x="57.6" y="41.472" style="stroke: #000000; stroke-width: 0.8"/>
      </g>
     </g>
     <g id="text_16">
      <!-- 20 -->
      <g transform="translate(37.875 45.271219) scale(0.1 -0.1)">
       <use xlink:href="#DejaVuSans-32"/>
       <use xlink:href="#DejaVuSans-30" x="63.623047"/>
      </g>
     </g>
    </g>
    <g id="text_17">
     <!-- Ampere [A] -->
     <g transform="translate(23.415625 202.999875) rotate(-90) scale(0.1 -0.1)">
      <defs>
       <path id="DejaVuSans-6d" d="M 3328 2828 
Q 3544 3216 3844 3400 
Q 4144 3584 4550 3584 
Q 5097 3584 5394 3201 
Q 5691 2819 5691 2113 
L 5691 0 
L 5113 0 
L 5113 2094 
Q 5113 2597 4934 2840 
Q 4756 3084 4391 3084 
Q 3944 3084 3684 2787 
Q 3425 2491 3425 1978 
L 3425 0 
L 2847 0 
L 2847 2094 
Q 2847 2600 2669 2842 
Q 2491 3084 2119 3084 
Q 1678 3084 1418 2786 
Q 1159 2488 1159 1978 
L 1159 0 
L 581 0 
L 581 3500 
L 1159 3500 
L 1159 2956 
Q 1356 3278 1631 3431 
Q 1906 3584 2284 3584 
Q 2666 3584 2933 3390 
Q 3200 3197 3328 2828 
z
" transform="scale(0.015625)"/>
       <path id="DejaVuSans-65" d="M 3597 1894 
L 3597 1613 
L 953 1613 
Q 991 1019 1311 708 
Q 1631 397 2203 397 
Q 2534 397 2845 478 
Q 3156 559 3463 722 
L 3463 178 
Q 3153 47 2828 -22 
Q 2503 -91 2169 -91 
Q 1331 -91 842 396 
Q 353 884 353 1716 
Q 353 2575 817 3079 
Q 1281 3584 2069 3584 
Q 2775 3584 3186 3129 
Q 3597 2675 3597 1894 
z
M 3022 2063 
Q 3016 2534 2758 2815 
Q 2500 3097 2075 3097 
Q 1594 3097 1305 2825 
Q 1016 2553 972 2059 
L 3022 2063 
z
" transform="scale(0.015625)"/>
       <path id="DejaVuSans-72" d="M 2631 2963 
Q 2534 3019 2420 3045 
Q 2306 3072 2169 3072 
Q 1681 3072 1420 2755 
Q 1159 2438 1159 1844 
L 1159 0 
L 581 0 
L 581 3500 
L 1159 3500 
L 1159 2956 
Q 1341 3275 1631 3429 
Q 1922 3584 2338 3584 
Q 2397 3584 2469 3576 
Q 2541 3569 2628 3553 
L 2631 2963 
z
" transform="scale(0.015625)"/>
      </defs>
      <use xlink:href="#DejaVuSans-41"/>
      <use xlink:href="#DejaVuSans-6d" x="68.408203"/>
      <use xlink:href="#DejaVuSans-70" x="165.820312"/>
      <use xlink:href="#DejaVuSans-65" x="229.296875"/>
      <use xlink:href="#DejaVuSans-72" x="290.820312"/>
      <use xlink:href="#DejaVuSans-65" x="329.683594"/>
      <use xlink:href="#DejaVuSans-20" x="391.207031"/>
      <use xlink:href="#DejaVuSans-5b" x="422.994141"/>
      <use xlink:href="#DejaVuSans-41" x="462.007812"/>
      <use xlink:href="#DejaVuSans-5d" x="530.416016"/>
     </g>
    </g>
   </g>
   <g id="line2d_16">
    <path d="M 104.525568 294.078816 
L 111.667968 287.492544 
L 118.881792 280.906272 
L 126.095616 274.253472 
L 133.30944 267.6672 
L 140.523264 261.0144 
L 147.808512 254.428128 
L 155.09376 247.775328 
L 162.379008 241.122528 
L 169.664256 234.469728 
L 176.949504 227.816928 
L 184.306176 221.164128 
L 191.591424 214.4448 
L 198.948096 207.792 
L 206.304768 201.1392 
L 213.590016 194.4864 
L 220.946688 187.8336 
L 228.30336 181.1808 
L 229.0176 180.51552 
L 229.73184 179.85024 
L 230.44608 179.18496 
L 231.231744 178.51968 
L 231.945984 177.8544 
L 232.660224 177.18912 
L 233.445888 176.52384 
L 234.160128 175.85856 
L 234.945792 175.19328 
L 235.517184 174.528 
L 236.302848 173.86272 
L 237.017088 173.19744 
L 237.802752 172.53216 
L 238.516992 171.86688 
L 239.945472 171.2016 
L 240.016896 170.53632 
L 240.731136 169.87104 
L 241.5168 169.20576 
L 242.23104 168.54048 
L 243.730944 167.8752 
L 251.230464 161.2224 
L 258.65856 154.5696 
L 266.15808 147.9168 
L 273.6576 141.264 
L 281.085696 134.6112 
L 288.585216 127.891872 
L 295.941888 121.239072 
L 303.369984 114.586272 
L 310.79808 107.933472 
L 318.2976 101.280672 
L 325.725696 94.627872 
L 333.153792 88.0416 
L 340.581888 81.3888 
L 348.081408 74.802528 
L 355.509504 68.149728 
L 362.9376 61.563456 
L 370.43712 54.977184 
" clip-path="url(#p69934eb496)" style="fill: none; stroke: #1f77b4; stroke-width: 1.5; stroke-linecap: square"/>
    <defs>
     <path id="m89fae434eb" d="M -3 3 
L 3 -3 
M -3 -3 
L 3 3 
" style="stroke: #1f77b4"/>
    </defs>
    <g clip-path="url(#p69934eb496)">
     <use xlink:href="#m89fae434eb" x="104.525568" y="294.078816" style="fill: #1f77b4; stroke: #1f77b4"/>
     <use xlink:href="#m89fae434eb" x="111.667968" y="287.492544" style="fill: #1f77b4; stroke: #1f77b4"/>
     <use xlink:href="#m89fae434eb" x="118.881792" y="280.906272" style="fill: #1f77b4; stroke: #1f77b4"/>
     <use xlink:href="#m89fae434eb" x="126.095616" y="274.253472" style="fill: #1f77b4; stroke: #1f77b4"/>
     <use xlink:href="#m89fae434eb" x="133.30944" y="267.6672" style="fill: #1f77b4; stroke: #1f77b4"/>
     <use xlink:href="#m89fae434eb" x="140.523264" y="261.0144" style="fill: #1f77b4; stroke: #1f77b4"/>
     <use xlink:href="#m89fae434eb" x="147.808512" y="254.428128" style="fill: #1f77b4; stroke: #1f77b4"/>
     <use xlink:href="#m89fae434eb" x="155.09376" y="247.775328" style="fill: #1f77b4; stroke: #1f77b4"/>
     <use xlink:href="#m89fae434eb" x="162.379008" y="241.122528" style="fill: #1f77b4; stroke: #1f77b4"/>
     <use xlink:href="#m89fae434eb" x="169.664256" y="234.469728" style="fill: #1f77b4; stroke: #1f77b4"/>
     <use xlink:href="#m89fae434eb" x="176.949504" y="227.816928" style="fill: #1f77b4; stroke: #1f77b4"/>
     <use xlink:href="#m89fae434eb" x="184.306176" y="221.164128" style="fill: #1f77b4; stroke: #1f77b4"/>
     <use xlink:href="#m89fae434eb" x="191.591424" y="214.4448" style="fill: #1f77b4; stroke: #1f77b4"/>
     <use xlink:href="#m89fae434eb" x="198.948096" y="207.792" style="fill: #1f77b4; stroke: #1f77b4"/>
     <use xlink:href="#m89fae434eb" x="206.304768" y="201.1392" style="fill: #1f77b4; stroke: #1f77b4"/>
     <use xlink:href="#m89fae434eb" x="213.590016" y="194.4864" style="fill: #1f77b4; stroke: #1f77b4"/>
     <use xlink:href="#m89fae434eb" x="220.946688" y="187.8336" style="fill: #1f77b4; stroke: #1f77b4"/>
     <use xlink:href="#m89fae434eb" x="228.30336" y="181.1808" style="fill: #1f77b4; stroke: #1f77b4"/>
     <use xlink:href="#m89fae434eb" x="229.0176" y="180.51552" style="fill: #1f77b4; stroke: #1f77b4"/>
     <use xlink:href="#m89fae434eb" x="229.73184" y="179.85024" style="fill: #1f77b4; stroke: #1f77b4"/>
     <use xlink:href="#m89fae434eb" x="230.44608" y="179.18496" style="fill: #1f77b4; stroke: #1f77b4"/>
     <use xlink:href="#m89fae434eb" x="231.231744" y="178.51968" style="fill: #1f77b4; stroke: #1f77b4"/>
     <use xlink:href="#m89fae434eb" x="231.945984" y="177.8544" style="fill: #1f77b4; stroke: #1f77b4"/>
     <use xlink:href="#m89fae434eb" x="232.660224" y="177.18912" style="fill: #1f77b4; stroke: #1f77b4"/>
     <use xlink:href="#m89fae434eb" x="233.445888" y="176.52384" style="fill: #1f77b4; stroke: #1f77b4"/>
     <use xlink:href="#m89fae434eb" x="234.160128" y="175.85856" style="fill: #1f77b4; stroke: #1f77b4"/>
     <use xlink:href="#m89fae434eb" x="234.945792" y="175.19328" style="fill: #1f77b4; stroke: #1f77b4"/>
     <use xlink:href="#m89fae434eb" x="235.517184" y="174.528" style="fill: #1f77b4; stroke: #1f77b4"/>
     <use xlink:href="#m89fae434eb" x="236.302848" y="173.86272" style="fill: #1f77b4; stroke: #1f77b4"/>
     <use xlink:href="#m89fae434eb" x="237.017088" y="173.19744" style="fill: #1f77b4; stroke: #1f77b4"/>
     <use xlink:href="#m89fae434eb" x="237.802752" y="172.53216" style="fill: #1f77b4; stroke: #1f77b4"/>
     <use xlink:href="#m89fae434eb" x="238.516992" y="171.86688" style="fill: #1f77b4; stroke: #1f77b4"/>
     <use xlink:href="#m89fae434eb" x="239.945472" y="171.2016" style="fill: #1f77b4; stroke: #1f77b4"/>
     <use xlink:href="#m89fae434eb" x="240.016896" y="170.53632" style="fill: #1f77b4; stroke: #1f77b4"/>
     <use xlink:href="#m89fae434eb" x="240.731136" y="169.87104" style="fill: #1f77b4; stroke: #1f77b4"/>
     <use xlink:href="#m89fae434eb" x="241.5168" y="169.20576" style="fill: #1f77b4; stroke: #1f77b4"/>
     <use xlink:href="#m89fae434eb" x="242.23104" y="168.54048" style="fill: #1f77b4; stroke: #1f77b4"/>
     <use xlink:href="#m89fae434eb" x="243.730944" y="167.8752" style="fill: #1f77b4; stroke: #1f77b4"/>
     <use xlink:href="#m89fae434eb" x="251.230464" y="161.2224" style="fill: #1f77b4; stroke: #1f77b4"/>
     <use xlink:href="#m89fae434eb" x="258.65856" y="154.5696" style="fill: #1f77b4; stroke: #1f77b4"/>
     <use xlink:href="#m89fae434eb" x="266.15808" y="147.9168" style="fill: #1f77b4; stroke: #1f77b4"/>
     <use xlink:href="#m89fae434eb" x="273.6576" y="141.264" style="fill: #1f77b4; stroke: #1f77b4"/>
     <use xlink:href="#m89fae434eb" x="281.085696" y="134.6112" style="fill: #1f77b4; stroke: #1f77b4"/>
     <use xlink:href="#m89fae434eb" x="288.585216" y="127.891872" style="fill: #1f77b4; stroke: #1f77b4"/>
     <use xlink:href="#m89fae434eb" x="295.941888" y="121.239072" style="fill: #1f77b4; stroke: #1f77b4"/>
     <use xlink:href="#m89fae434eb" x="303.369984" y="114.586272" style="fill: #1f77b4; stroke: #1f77b4"/>
     <use xlink:href="#m89fae434eb" x="310.79808" y="107.933472" style="fill: #1f77b4; stroke: #1f77b4"/>
     <use xlink:href="#m89fae434eb" x="318.2976" y="101.280672" style="fill: #1f77b4; stroke: #1f77b4"/>
     <use xlink:href="#m89fae434eb" x="325.725696" y="94.627872" style="fill: #1f77b4; stroke: #1f77b4"/>
     <use xlink:href="#m89fae434eb" x="333.153792" y="88.0416" style="fill: #1f77b4; stroke: #1f77b4"/>
     <use xlink:href="#m89fae434eb" x="340.581888" y="81.3888" style="fill: #1f77b4; stroke: #1f77b4"/>
     <use xlink:href="#m89fae434eb" x="348.081408" y="74.802528" style="fill: #1f77b4; stroke: #1f77b4"/>
     <use xlink:href="#m89fae434eb" x="355.509504" y="68.149728" style="fill: #1f77b4; stroke: #1f77b4"/>
     <use xlink:href="#m89fae434eb" x="362.9376" y="61.563456" style="fill: #1f77b4; stroke: #1f77b4"/>
     <use xlink:href="#m89fae434eb" x="370.43712" y="54.977184" style="fill: #1f77b4; stroke: #1f77b4"/>
    </g>
   </g>
   <g id="line2d_17">
    <path d="M 106.953984 294.2784 
L 364.080384 54.7776 
" clip-path="url(#p69934eb496)" style="fill: none; stroke-dasharray: 5.55,2.4; stroke-dashoffset: 0; stroke: #000000; stroke-width: 1.5"/>
   </g>
   <g id="patch_3">
    <path d="M 57.6 307.584 
L 57.6 41.472 
" style="fill: none; stroke: #000000; stroke-width: 0.8; stroke-linejoin: miter; stroke-linecap: square"/>
   </g>
   <g id="patch_4">
    <path d="M 414.72 307.584 
L 414.72 41.472 
" style="fill: none; stroke: #000000; stroke-width: 0.8; stroke-linejoin: miter; stroke-linecap: square"/>
   </g>
   <g id="patch_5">
    <path d="M 57.6 307.584 
L 414.72 307.584 
" style="fill: none; stroke: #000000; stroke-width: 0.8; stroke-linejoin: miter; stroke-linecap: square"/>
   </g>
   <g id="patch_6">
    <path d="M 57.6 41.472 
L 414.72 41.472 
" style="fill: none; stroke: #000000; stroke-width: 0.8; stroke-linejoin: miter; stroke-linecap: square"/>
   </g>
   <g id="legend_1">
    <g id="patch_7">
     <path d="M 328.1575 302.584 
L 407.72 302.584 
Q 409.72 302.584 409.72 300.584 
L 409.72 272.22775 
Q 409.72 270.22775 407.72 270.22775 
L 328.1575 270.22775 
Q 326.1575 270.22775 326.1575 272.22775 
L 326.1575 300.584 
Q 326.1575 302.584 328.1575 302.584 
z
" style="fill: #ffffff; opacity: 0.8; stroke: #cccccc; stroke-linejoin: miter"/>
    </g>
    <g id="line2d_18">
     <path d="M 330.1575 278.326187 
L 340.1575 278.326187 
L 350.1575 278.326187 
" style="fill: none; stroke: #1f77b4; stroke-width: 1.5; stroke-linecap: square"/>
     <g>
      <use xlink:href="#m89fae434eb" x="340.1575" y="278.326187" style="fill: #1f77b4; stroke: #1f77b4"/>
     </g>
    </g>
    <g id="text_18">
     <!-- Messwert -->
     <g transform="translate(358.1575 281.826187) scale(0.1 -0.1)">
      <defs>
       <path id="DejaVuSans-4d" d="M 628 4666 
L 1569 4666 
L 2759 1491 
L 3956 4666 
L 4897 4666 
L 4897 0 
L 4281 0 
L 4281 4097 
L 3078 897 
L 2444 897 
L 1241 4097 
L 1241 0 
L 628 0 
L 628 4666 
z
" transform="scale(0.015625)"/>
       <path id="DejaVuSans-77" d="M 269 3500 
L 844 3500 
L 1563 769 
L 2278 3500 
L 2956 3500 
L 3675 769 
L 4391 3500 
L 4966 3500 
L 4050 0 
L 3372 0 
L 2619 2869 
L 1863 0 
L 1184 0 
L 269 3500 
z
" transform="scale(0.015625)"/>
       <path id="DejaVuSans-74" d="M 1172 4494 
L 1172 3500 
L 2356 3500 
L 2356 3053 
L 1172 3053 
L 1172 1153 
Q 1172 725 1289 603 
Q 1406 481 1766 481 
L 2356 481 
L 2356 0 
L 1766 0 
Q 1100 0 847 248 
Q 594 497 594 1153 
L 594 3053 
L 172 3053 
L 172 3500 
L 594 3500 
L 594 4494 
L 1172 4494 
z
" transform="scale(0.015625)"/>
      </defs>
      <use xlink:href="#DejaVuSans-4d"/>
      <use xlink:href="#DejaVuSans-65" x="86.279297"/>
      <use xlink:href="#DejaVuSans-73" x="147.802734"/>
      <use xlink:href="#DejaVuSans-73" x="199.902344"/>
      <use xlink:href="#DejaVuSans-77" x="252.001953"/>
      <use xlink:href="#DejaVuSans-65" x="333.789062"/>
      <use xlink:href="#DejaVuSans-72" x="395.3125"/>
      <use xlink:href="#DejaVuSans-74" x="436.425781"/>
     </g>
    </g>
    <g id="line2d_19">
     <path d="M 330.1575 293.004312 
L 340.1575 293.004312 
L 350.1575 293.004312 
" style="fill: none; stroke-dasharray: 5.55,2.4; stroke-dashoffset: 0; stroke: #000000; stroke-width: 1.5"/>
    </g>
    <g id="text_19">
     <!-- Idealwert -->
     <g transform="translate(358.1575 296.504312) scale(0.1 -0.1)">
      <defs>
       <path id="DejaVuSans-49" d="M 628 4666 
L 1259 4666 
L 1259 0 
L 628 0 
L 628 4666 
z
" transform="scale(0.015625)"/>
       <path id="DejaVuSans-64" d="M 2906 2969 
L 2906 4863 
L 3481 4863 
L 3481 0 
L 2906 0 
L 2906 525 
Q 2725 213 2448 61 
Q 2172 -91 1784 -91 
Q 1150 -91 751 415 
Q 353 922 353 1747 
Q 353 2572 751 3078 
Q 1150 3584 1784 3584 
Q 2172 3584 2448 3432 
Q 2725 3281 2906 2969 
z
M 947 1747 
Q 947 1113 1208 752 
Q 1469 391 1925 391 
Q 2381 391 2643 752 
Q 2906 1113 2906 1747 
Q 2906 2381 2643 2742 
Q 2381 3103 1925 3103 
Q 1469 3103 1208 2742 
Q 947 2381 947 1747 
z
" transform="scale(0.015625)"/>
       <path id="DejaVuSans-6c" d="M 603 4863 
L 1178 4863 
L 1178 0 
L 603 0 
L 603 4863 
z
" transform="scale(0.015625)"/>
      </defs>
      <use xlink:href="#DejaVuSans-49"/>
      <use xlink:href="#DejaVuSans-64" x="29.492188"/>
      <use xlink:href="#DejaVuSans-65" x="92.96875"/>
      <use xlink:href="#DejaVuSans-61" x="154.492188"/>
      <use xlink:href="#DejaVuSans-6c" x="215.771484"/>
      <use xlink:href="#DejaVuSans-77" x="243.554688"/>
      <use xlink:href="#DejaVuSans-65" x="325.341797"/>
      <use xlink:href="#DejaVuSans-72" x="386.865234"/>
      <use xlink:href="#DejaVuSans-74" x="427.978516"/>
     </g>
    </g>
   </g>
  </g>
 </g>
 <defs>
  <clipPath id="p69934eb496">
   <rect x="57.6" y="41.472" width="357.12" height="266.112"/>
  </clipPath>
 </defs>
</svg>
